<?xml version="1.0" encoding="UTF-8" standalone="no"?>
<!-- Created with Inkscape (http://www.inkscape.org/) -->

<svg
   width="976.22144mm"
   height="137.40752mm"
   viewBox="0 0 976.22144 137.40752"
   version="1.1"
   id="svg1"
   inkscape:version="1.3 (0e150ed6c4, 2023-07-21)"
   sodipodi:docname="logo.svg"
   xmlns:inkscape="http://www.inkscape.org/namespaces/inkscape"
   xmlns:sodipodi="http://sodipodi.sourceforge.net/DTD/sodipodi-0.dtd"
   xmlns="http://www.w3.org/2000/svg"
   xmlns:svg="http://www.w3.org/2000/svg">
  <sodipodi:namedview
     id="namedview1"
     pagecolor="#505050"
     bordercolor="#eeeeee"
     borderopacity="1"
     inkscape:showpageshadow="0"
     inkscape:pageopacity="0"
     inkscape:pagecheckerboard="0"
     inkscape:deskcolor="#505050"
     inkscape:document-units="mm"
     inkscape:zoom="0.14253648"
     inkscape:cx="1813.5709"
     inkscape:cy="63.141732"
     inkscape:window-width="1600"
     inkscape:window-height="829"
     inkscape:window-x="-8"
     inkscape:window-y="-8"
     inkscape:window-maximized="1"
     inkscape:current-layer="layer1" />
  <defs
     id="defs1" />
  <g
     inkscape:label="Layer 1"
     inkscape:groupmode="layer"
     id="layer1"
     transform="translate(494.13714,-355.30975)">
    <path
       d="m -395.36205,453.48255 q 0,7.48557 -3.52768,14.79906 -3.44164,7.31349 -9.72264,12.38991 -6.88328,5.50662 -16.08967,8.6041 -9.12035,3.09748 -22.0265,3.09748 -13.8526,0 -24.9519,-2.58124 -11.01325,-2.58123 -22.4567,-7.65765 v -21.33817 h 1.20457 q 9.72264,8.08786 22.45671,12.47595 12.73407,4.38809 23.9194,4.38809 15.83155,0 24.60773,-5.93683 8.86223,-5.93683 8.86223,-15.83155 0,-8.51806 -4.21601,-12.56199 -4.12997,-4.04392 -12.64803,-6.28099 -6.45308,-1.72082 -14.02469,-2.83935 -7.48557,-1.11854 -15.91759,-2.83936 -17.03612,-3.61372 -25.29606,-12.30386 -8.17389,-8.77619 -8.17389,-22.80087 0,-16.08967 13.59448,-26.32855 13.59448,-10.32493 34.50245,-10.32493 13.50844,0 24.77981,2.58123 11.27137,2.58124 19.96152,6.36704 v 20.1336 h -1.20458 q -7.31348,-6.19496 -19.27319,-10.23888 -11.87366,-4.12997 -24.3496,-4.12997 -13.68053,0 -22.0265,5.67871 -8.25994,5.6787 -8.25994,14.62697 0,8.00181 4.12997,12.56199 4.12997,4.56017 14.54093,6.96932 5.50662,1.20457 15.65946,2.92539 10.15284,1.72082 17.20821,3.52769 14.28281,3.7858 21.51025,11.44345 7.22745,7.65765 7.22745,21.42421 z m 100.75403,36.56744 h -16.08967 v -10.23888 q -2.15102,1.46269 -5.85079,4.12997 -3.61372,2.58123 -7.05536,4.12996 -4.04393,1.97895 -9.29243,3.26956 -5.2485,1.37666 -12.30387,1.37666 -12.99219,0 -22.0265,-8.6041 -9.0343,-8.6041 -9.0343,-21.94046 0,-10.92721 4.64621,-17.63841 4.73226,-6.79724 13.4224,-10.66909 8.77618,-3.87184 21.08005,-5.2485 12.30387,-1.37666 26.41459,-2.06498 v -2.49519 q 0,-5.50663 -1.97894,-9.12035 -1.8929,-3.61372 -5.50663,-5.67871 -3.44164,-1.97894 -8.25993,-2.66727 -4.8183,-0.68833 -10.0668,-0.68833 -6.36704,0 -14.19677,1.72082 -7.82973,1.63478 -16.17571,4.8183 h -0.86041 v -16.43384 q 4.73225,-1.29061 13.68052,-2.83935 8.94826,-1.54874 17.63841,-1.54874 10.15284,0 17.63841,1.72082 7.57161,1.63478 13.07823,5.67871 5.42059,3.95789 8.25994,10.23888 2.83935,6.281 2.83935,15.57343 z m -16.08967,-23.66128 v -26.75876 q -7.39953,0.43021 -17.46632,1.29062 -9.98076,0.86041 -15.83155,2.49519 -6.96932,1.97894 -11.27138,6.19495 -4.30205,4.12997 -4.30205,11.44345 0,8.25994 4.99038,12.47595 4.99038,4.12997 15.22926,4.12997 8.51806,0 15.57343,-3.26956 7.05536,-3.3556 13.07823,-8.00181 z m 98.94716,-94.55908 h -0.86041 q -2.66727,-0.77437 -6.96932,-1.54874 -4.30205,-0.86041 -7.57161,-0.86041 -10.41096,0 -15.14322,4.64622 -4.64621,4.56017 -4.64621,16.60591 v 3.26956 h 29.1679 v 13.59448 h -28.65166 v 82.51334 h -16.17571 v -82.51334 h -10.92721 v -13.59448 h 10.92721 v -3.18352 q 0,-17.12216 8.51806,-26.24251 8.51806,-9.20639 24.60774,-9.20639 5.42058,0 9.72263,0.51625 4.38809,0.51625 8.00181,1.20457 z m 90.68726,71.84425 h -70.81176 q 0,8.86222 2.66727,15.48738 2.66727,6.53912 7.31349,10.75513 4.47413,4.12997 10.58304,6.19495 6.19496,2.06499 13.59449,2.06499 9.80867,0 19.70339,-3.87185 9.98076,-3.95789 14.19677,-7.74369 h 0.86041 v 17.63841 q -8.1739,3.44164 -16.69196,5.76475 -8.51806,2.3231 -17.89653,2.3231 -23.91941,0 -37.3418,-12.90615 -13.4224,-12.99219 -13.4224,-36.82555 0,-23.57524 12.82011,-37.42785 12.90615,-13.8526 33.90016,-13.8526 19.44527,0 29.94227,11.35741 10.58305,11.35742 10.58305,32.26539 z m -15.74551,-12.38991 q -0.086,-12.73407 -6.45307,-19.70339 -6.281,-6.96932 -19.18715,-6.96932 -12.99219,0 -20.73589,7.65765 -7.65765,7.65765 -8.69014,19.01506 z m 134.6541862,22.19858 q 0,7.48557 -3.5276818,14.79906 -3.4416407,7.31349 -9.7226354,12.38991 -6.883281,5.50662 -16.08967,8.6041 -9.120348,3.09748 -22.026501,3.09748 -13.852604,0 -24.951895,-2.58124 -11.01325,-2.58123 -22.456703,-7.65765 v -21.33817 h 1.204571 q 9.722635,8.08786 22.456706,12.47595 12.734071,4.38809 23.919403,4.38809 15.831548,0 24.607732,-5.93683 8.862224,-5.93683 8.862224,-15.83155 0,-8.51806 -4.21601,-12.56199 -4.129968,-4.04392 -12.648029,-6.28099 -6.453077,-1.72082 -14.024686,-2.83935 -7.485569,-1.11854 -15.917589,-2.83936 -17.036121,-3.61372 -25.296059,-12.30386 -8.173893,-8.77619 -8.173893,-22.80087 0,-16.08967 13.594477,-26.32855 13.594481,-10.32493 34.502449,-10.32493 13.508439,0 24.779813,2.58123 11.271373,2.58124 19.9615161,6.36704 v 20.1336 h -1.2045743 q -7.3134868,-6.19496 -19.2731878,-10.23888 -11.873661,-4.12997 -24.349608,-4.12997 -13.680522,0 -22.026501,5.67871 -8.259938,5.6787 -8.259938,14.62697 0,8.00181 4.129969,12.56199 4.129969,4.56017 14.540932,6.96932 5.506625,1.20457 15.659465,2.92539 10.152841,1.72082 17.208204,3.52769 14.282809,3.7858 21.5102546,11.44345 7.2274456,7.65765 7.2274456,21.42421 z M 104.36416,443.67388 H 33.552401 q 0,8.86222 2.667271,15.48738 2.667272,6.53912 7.313487,10.75513 4.474133,4.12997 10.583045,6.19495 6.194953,2.06499 13.594481,2.06499 9.808676,0 19.703393,-3.87185 9.980758,-3.95789 14.196772,-7.74369 h 0.86041 v 17.63841 q -8.1739,3.44164 -16.691961,5.76475 -8.518061,2.3231 -17.896532,2.3231 -23.919403,0 -37.341802,-12.90615 -13.422399,-12.99219 -13.422399,-36.82555 0,-23.57524 12.820112,-37.42785 12.906153,-13.8526 33.900161,-13.8526 19.44527,0 29.942274,11.35741 10.583047,11.35742 10.583047,32.26539 z M 88.618652,431.28397 q -0.08604,-12.73407 -6.453076,-19.70339 -6.280994,-6.96932 -19.187147,-6.96932 -12.992194,0 -20.735886,7.65765 -7.65765,7.65765 -8.690142,19.01506 z m 114.950788,58.76602 h -16.08967 v -10.23888 q -2.15102,1.46269 -5.85079,4.12997 -3.61372,2.58123 -7.05536,4.12996 -4.04393,1.97895 -9.29243,3.26956 -5.2485,1.37666 -12.30387,1.37666 -12.99219,0 -22.0265,-8.6041 -9.0343,-8.6041 -9.0343,-21.94046 0,-10.92721 4.64621,-17.63841 4.73226,-6.79724 13.4224,-10.66909 8.77618,-3.87184 21.08005,-5.2485 12.30386,-1.37666 26.41459,-2.06498 v -2.49519 q 0,-5.50663 -1.97894,-9.12035 -1.8929,-3.61372 -5.50663,-5.67871 -3.44164,-1.97894 -8.25993,-2.66727 -4.8183,-0.68833 -10.0668,-0.68833 -6.36704,0 -14.19677,1.72082 -7.82973,1.63478 -16.17571,4.8183 h -0.86041 v -16.43384 q 4.73225,-1.29061 13.68052,-2.83935 8.94826,-1.54874 17.63841,-1.54874 10.15284,0 17.63841,1.72082 7.57161,1.63478 13.07823,5.67871 5.42058,3.95789 8.25994,10.23888 2.83935,6.281 2.83935,15.57343 z m -16.08967,-23.66128 v -26.75876 q -7.39953,0.43021 -17.46632,1.29062 -9.98076,0.86041 -15.83155,2.49519 -6.96932,1.97894 -11.27138,6.19495 -4.30205,4.12997 -4.30205,11.44345 0,8.25994 4.99038,12.47595 4.99038,4.12997 15.22926,4.12997 8.51806,0 15.57343,-3.26956 7.05536,-3.3556 13.07823,-8.00181 z m 107.20716,-54.80813 h -0.86041 q -3.61372,-0.86041 -7.05536,-1.20458 -3.3556,-0.4302 -8.00181,-0.4302 -7.48557,0 -14.4549,3.3556 -6.96932,3.26956 -13.42239,8.51806 v 68.23053 h -16.17572 v -96.10782 h 16.17572 v 14.19677 q 9.63659,-7.74369 16.95008,-10.92721 7.39952,-3.26956 15.05717,-3.26956 4.21601,0 6.10892,0.25812 1.8929,0.17209 5.6787,0.77437 z m 86.29912,72.44654 q -8.08785,3.87184 -15.40134,6.02287 -7.22744,2.15102 -15.40134,2.15102 -10.41096,0 -19.10111,-3.01143 -8.69014,-3.09748 -14.88509,-9.29243 -6.281,-6.19496 -9.72264,-15.65947 -3.44164,-9.46451 -3.44164,-22.11254 0,-23.57524 12.90615,-36.99764 12.9922,-13.4224 34.24433,-13.4224 8.25994,0 16.17571,2.32311 8.00182,2.32311 14.62697,5.67871 v 17.98257 h -0.86041 q -7.39952,-5.76475 -15.3153,-8.86222 -7.82973,-3.09748 -15.3153,-3.09748 -13.76656,0 -21.76838,9.29243 -7.91577,9.20639 -7.91577,27.10292 0,17.38029 7.74369,26.75876 7.82973,9.29243 21.94046,9.29243 4.90434,0 9.98076,-1.29062 5.07642,-1.29061 9.12035,-3.3556 3.52768,-1.80686 6.62516,-3.7858 3.09747,-2.06499 4.90433,-3.52768 h 0.86041 z m 101.09822,6.02287 H 465.90856 V 435.3279 q 0,-6.62516 -0.77437,-12.38991 -0.77437,-5.85079 -2.83935,-9.12034 -2.15103,-3.61373 -6.19496,-5.33455 -4.04393,-1.80686 -10.497,-1.80686 -6.62516,0 -13.85261,3.26956 -7.22744,3.26956 -13.8526,8.34598 v 71.75821 H 401.72196 V 356.17016 h 16.17571 v 48.4411 q 7.57161,-6.281 15.65947,-9.80868 8.08785,-3.52768 16.60591,-3.52768 15.57343,0 23.74732,9.37847 8.1739,9.37847 8.1739,27.01688 z"
       id="text1"
       style="font-size:176.212px;line-height:0.9;font-family:VideoPlayerIcons;-inkscape-font-specification:VideoPlayerIcons;text-align:center;text-anchor:middle;stroke-width:2.64583"
       aria-label="SafeSearch" />
  </g>
</svg>
